<svg width="98" height="98" viewBox="0 0 98 98" fill="none" xmlns="http://www.w3.org/2000/svg">
<circle cx="48.9619" cy="48.9619" r="48.9619" fill="url(#paint0_linear_6646_1000)"/>
<path fill-rule="evenodd" clip-rule="evenodd" d="M26.0006 50.0459C26.0006 37.3657 36.2817 27.0846 48.9619 27.0846C61.6421 27.0846 71.9232 37.3657 71.9232 50.0459C71.9232 56.0932 69.5873 61.5901 65.7689 65.6912C65.0022 66.514 65.0455 67.8055 65.8708 68.5723C66.6936 69.339 67.9825 69.2932 68.7493 68.4704C73.2452 63.6433 75.9987 57.1628 75.9987 50.0458C75.9987 35.1138 63.8943 23.0088 48.9618 23.0088C34.0292 23.0088 21.9248 35.1132 21.9248 50.0458C21.9248 57.1628 24.6785 63.6435 29.1743 68.4704C29.941 69.2931 31.2299 69.339 32.0527 68.5723C32.878 67.8055 32.9213 66.5141 32.1546 65.6912C28.3337 61.5901 26.0006 56.0929 26.0006 50.0459ZM42.553 46.7879C42.553 43.2497 45.4237 40.379 48.9619 40.379C52.5001 40.379 55.3709 43.2497 55.3709 46.7879C55.3709 50.321 52.5103 53.1867 48.9772 53.1944H48.9466C45.4135 53.1867 42.553 50.321 42.553 46.7879ZM59.4464 46.7879C59.4464 49.7912 58.183 52.4989 56.1604 54.4097C59.0949 55.4337 61.7466 57.064 63.9602 59.1502C64.7779 59.9246 64.8161 61.2136 64.0443 62.0312C63.2725 62.8515 61.981 62.8897 61.1633 62.1153C57.9817 59.1146 53.6973 57.2754 48.9793 57.2703L48.9615 57.2729L48.9437 57.2703C44.2261 57.2754 39.9414 59.1146 36.7597 62.1153C35.9421 62.8897 34.6506 62.8515 33.8787 62.0312C33.1069 61.2136 33.1451 59.9246 33.9628 59.1502C36.1764 57.064 38.8281 55.4337 41.7626 54.4097C39.7401 52.4993 38.4766 49.7915 38.4766 46.7879C38.4766 40.9979 43.1713 36.3034 48.9612 36.3034C54.7511 36.3034 59.4457 40.998 59.4457 46.7879H59.4464ZM57.9766 65.727C58.7714 64.9323 58.7714 63.6408 57.9766 62.846C57.1793 62.0487 55.8904 62.0487 55.0931 62.846L47.9454 69.9938L44.6721 66.7231C43.8773 65.9283 42.5859 65.9283 41.7911 66.7231C40.9963 67.5204 40.9963 68.8093 41.7911 69.6041L46.5036 74.3166C46.8857 74.7012 47.4054 74.9152 47.9454 74.9152C48.4854 74.9152 49.0025 74.7012 49.3846 74.3166L57.9766 65.727Z" fill="black"/>
<defs>
<linearGradient id="paint0_linear_6646_1000" x1="97.9238" y1="73.1011" x2="-27.0109" y2="-8.37054e-08" gradientUnits="userSpaceOnUse">
<stop stop-color="#F78D1E"/>
<stop offset="1" stop-color="#FF9F3B"/>
</linearGradient>
</defs>
</svg>
