<svg width="41" height="41" viewBox="0 0 41 41" fill="none" xmlns="http://www.w3.org/2000/svg">
<path d="M20.0176 0.773438C30.6447 0.773438 39.2606 9.39421 39.2607 20.0176C39.2607 30.6448 30.64 39.2607 20.0176 39.2607C9.39421 39.2606 0.773438 30.6447 0.773438 20.0176C0.773537 9.39442 9.39442 0.773537 20.0176 0.773438Z" stroke="white" stroke-width="1.54766"/>
<path d="M17.1943 13.3779C17.1925 12.3616 17.5986 11.3845 18.3252 10.6621C19.052 9.93959 20.0402 9.53056 21.0732 9.52832H24.0186V11.6816H22C21.6549 11.6825 21.3131 11.7502 20.9941 11.8818C20.675 12.0136 20.3843 12.2068 20.1396 12.4502C19.8949 12.6937 19.6998 12.9831 19.5674 13.3018C19.468 13.5409 19.4058 13.7931 19.3809 14.0498L19.3682 14.3057V18.3174H24.0156L23.7451 20.4678H19.3721V29.7852C19.2428 29.7892 19.1129 29.7939 18.9824 29.7939H18.9814C18.384 29.7946 17.7877 29.7511 17.1973 29.665V20.4678H13.9385V18.3154H17.1943V13.3779Z" fill="white" stroke="white" stroke-width="1.54766"/>
</svg>
