<svg width="41" height="41" viewBox="0 0 41 41" fill="none" xmlns="http://www.w3.org/2000/svg">
<path d="M20.0176 0.773438C30.6447 0.773438 39.2606 9.39421 39.2607 20.0176C39.2607 30.6448 30.64 39.2607 20.0176 39.2607C9.39421 39.2606 0.773438 30.6447 0.773438 20.0176C0.773537 9.39442 9.39442 0.773537 20.0176 0.773438Z" stroke="white" stroke-width="1.54766"/>
<path d="M25.2061 10.4287C26.2811 10.4289 27.313 10.856 28.0732 11.6162C28.786 12.329 29.2051 13.2802 29.2549 14.2822L29.2607 14.4834V24.8281C29.2604 25.903 28.8333 26.9343 28.0732 27.6943C27.313 28.4545 26.2811 28.8816 25.2061 28.8818H14.8623C13.7872 28.8816 12.7553 28.4545 11.9951 27.6943C11.2349 26.9341 10.8078 25.9022 10.8076 24.8271V14.4834C10.8078 13.4083 11.2349 12.3764 11.9951 11.6162C12.7079 10.9035 13.6591 10.4844 14.6611 10.4346L14.8623 10.4287H25.2061ZM29.084 14.8271C29.0821 13.7084 28.6366 12.6359 27.8457 11.8447C27.0547 11.0535 25.982 10.6076 24.8633 10.6055H15.2061C14.0871 10.6073 13.0139 11.0525 12.2227 11.8438C11.4314 12.635 10.9862 13.7082 10.9844 14.8271V24.4854C10.9865 25.6041 11.4325 26.6768 12.2236 27.4678C13.0148 28.2587 14.0873 28.7042 15.2061 28.7061H24.8633C25.9818 28.7039 27.0548 28.2587 27.8457 27.4678C28.6366 26.6768 29.0818 25.6039 29.084 24.4854V14.8271Z" fill="white" stroke="white" stroke-width="1.54766"/>
<path d="M20.0352 15.4287C21.1556 15.4295 22.2302 15.8756 23.0225 16.668C23.8146 17.4604 24.2603 18.5348 24.2607 19.6553L24.249 19.9678C24.1952 20.6936 23.9541 21.3949 23.5479 22.0029C23.0835 22.6979 22.4236 23.2397 21.6514 23.5596C20.8791 23.8794 20.0288 23.9629 19.209 23.7998C18.3895 23.6366 17.6368 23.2344 17.0459 22.6436C16.4549 22.0525 16.0517 21.2993 15.8887 20.4795C15.7257 19.6596 15.8099 18.8093 16.1299 18.0371C16.4499 17.265 16.9915 16.6049 17.6865 16.1406C18.3816 15.6763 19.1993 15.4286 20.0352 15.4287ZM21.6064 15.8604C20.856 15.5494 20.0302 15.4676 19.2334 15.626C18.4366 15.7844 17.7043 16.1755 17.1299 16.75C16.5554 17.3245 16.1643 18.0567 16.0059 18.8535C15.8475 19.6503 15.9293 20.4761 16.2402 21.2266C16.5512 21.9769 17.0775 22.6182 17.7529 23.0693C18.4285 23.5205 19.2228 23.7619 20.0352 23.7617H20.0361C21.1241 23.7596 22.1672 23.326 22.9365 22.5566C23.7057 21.7874 24.1394 20.745 24.1416 19.6572V19.6553C24.1418 18.8429 23.9004 18.0486 23.4492 17.373C22.998 16.6976 22.3568 16.1713 21.6064 15.8604Z" fill="white" stroke="white" stroke-width="1.54766"/>
<path d="M25.5342 14.4287C25.8169 14.4287 26.0383 14.5067 26.166 14.5918C26.2038 14.617 26.2263 14.6395 26.2412 14.6553C26.2263 14.6711 26.2038 14.6936 26.166 14.7188C26.0383 14.8039 25.8169 14.8818 25.5342 14.8818C25.2514 14.8818 25.03 14.8039 24.9023 14.7188C24.8642 14.6933 24.8411 14.6711 24.8262 14.6553C24.8411 14.6394 24.8642 14.6172 24.9023 14.5918C25.03 14.5067 25.2514 14.4287 25.5342 14.4287Z" fill="white" stroke="white" stroke-width="1.54766"/>
</svg>
