<svg width="66" height="47" viewBox="0 0 66 47" fill="none" xmlns="http://www.w3.org/2000/svg">
<path d="M59.8714 0H6.12857C2.73429 0 0 2.78163 0 6.23469V40.7653C0 44.2184 2.73429 47 6.12857 47H59.8714C63.2657 47 66 44.2184 66 40.7653V6.23469C66 2.78163 63.2657 0 59.8714 0ZM57.3257 10.1673L37.4314 26.6653C36.1114 27.7204 34.6029 28.2959 33 28.2959C31.3971 28.2959 29.8886 27.7204 28.5686 26.6653L8.67429 10.1673C7.82572 9.49592 7.73143 8.24898 8.39143 7.48163C9.05143 6.61837 10.2771 6.52245 11.0314 7.19388L31.02 23.6918C32.2457 24.651 33.9429 24.651 35.0743 23.6918L55.0629 7.19388C55.9114 6.52245 57.0429 6.61837 57.7029 7.48163C58.2686 8.24898 58.1743 9.49592 57.3257 10.1673Z" fill="white"/>
</svg>
