<svg width="36" height="36" viewBox="0 0 36 36" fill="none" xmlns="http://www.w3.org/2000/svg">
<path d="M7.58691 1.01562L7.59375 1.0166L7.60156 1.01758C8.07728 1.07799 8.48057 1.34395 8.72656 1.77441V1.77539L12.4219 8.22559C13.0746 9.37404 12.8775 10.8227 11.9434 11.7568L10.541 13.1602L10.5342 13.167C9.551 14.1698 9.47978 15.7485 10.3613 16.8516V16.8525C12.664 19.7818 15.3234 22.4279 18.2363 24.7285V24.7295C19.3355 25.6163 20.9395 25.5564 21.9385 24.5576L23.3418 23.1553V23.1543C24.2755 22.2206 25.7244 22.0237 26.873 22.6758V22.6768L33.3242 26.3721H33.3252C33.7555 26.6179 34.0216 27.0211 34.082 27.4971L34.084 27.5098C34.1533 28.0026 33.993 28.4606 33.6611 28.7852L30.7217 31.7246C29.1598 33.2864 27.0856 34.0996 25.002 34.0996C23.6678 34.0995 22.335 33.7662 21.123 33.0889C13.0135 28.5061 6.5918 22.0857 2.00879 13.9766C0.266146 10.8779 0.819293 6.92179 3.37207 4.37988L3.37598 4.37598L6.28516 1.4541C6.64644 1.1009 7.1155 0.948285 7.58691 1.01562Z" stroke="#F78D1E" stroke-width="2"/>
</svg>
