<svg width="60" height="60" viewBox="0 0 60 60" fill="none" xmlns="http://www.w3.org/2000/svg">
<path d="M57.7425 43.5426L46.728 37.2337C44.0974 35.7367 40.7824 36.1859 38.6441 38.3245L36.2487 40.7197C35.1794 41.789 33.4256 41.8745 32.2066 40.8908C27.3304 37.0413 22.8819 32.6142 19.0322 27.717C18.0484 26.498 18.134 24.7657 19.2033 23.6751L21.5987 21.2799C23.7374 19.1413 24.1865 15.8264 22.6894 13.1963L16.3802 2.18235C15.6958 0.984733 14.5409 0.214838 13.1936 0.0437499C11.8462 -0.148724 10.5203 0.300382 9.53638 1.26272L4.55324 6.26704C-0.344356 11.143 -1.41378 18.7352 1.94402 24.7021C9.92121 38.8168 21.1068 50.0019 35.2222 57.9787C37.5534 59.2832 40.1198 59.9248 42.6861 59.9248C46.6855 59.9248 50.6633 58.3637 53.6575 55.3697L58.6621 50.3653C59.6244 49.4244 60.0736 48.0984 59.8811 46.7297C59.71 45.3824 58.9402 44.227 57.7425 43.5426Z" fill="white"/>
</svg>
