<svg width="56" height="56" viewBox="0 0 56 56" fill="none" xmlns="http://www.w3.org/2000/svg">
<path d="M26.5796 0H30.0789C30.7266 0.0778082 31.3776 0.138082 32.022 0.235616C38.3038 1.18575 43.7484 3.78301 48.1409 8.44164C54.5773 15.2767 57.0979 23.3644 55.5636 32.6126C53.454 45.3249 42.5571 54.4888 30.1238 55.4422C24.8371 55.8477 19.844 54.7704 15.1359 52.3364C14.914 52.231 14.6631 52.2033 14.4235 52.2575C9.6124 53.4952 4.80456 54.7426 0 56V55.7808C0.0710528 55.639 0.132561 55.4925 0.184116 55.3425C1.40169 50.9238 2.62146 46.5063 3.81493 42.0822C3.88076 41.776 3.83814 41.4564 3.69438 41.1781C0.516183 35.3425 -0.470154 29.1441 0.698107 22.6258C2.86586 10.5589 12.5539 2.33973 23.4529 0.438356C24.4907 0.257534 25.5352 0.144658 26.5796 0ZM6.7323 49.2734C6.98984 49.2186 7.14656 49.1912 7.30108 49.1507C9.83707 48.4931 12.3752 47.8444 14.9068 47.1715C15.084 47.1155 15.2714 47.0996 15.4555 47.125C15.6395 47.1504 15.8156 47.2164 15.971 47.3184C21.4627 50.606 27.3314 51.5923 33.5694 50.0932C45.6411 47.1868 53.2183 35.5068 50.9388 23.3731C48.4938 10.3518 35.267 1.97918 22.3712 5.29096C7.62877 9.08712 0.489881 25.863 8.00029 39.0795C8.3466 39.6899 8.89895 40.2795 8.97457 40.9227C9.05019 41.566 8.65785 42.2838 8.46387 42.9677C7.89617 45.0411 7.32848 47.1047 6.7323 49.2734Z" fill="white"/>
<path d="M34.9651 41.4815C34.3312 41.3957 33.6712 41.3991 33.0654 41.2082C29.6537 40.1318 26.3922 38.7155 23.6061 36.2285C21.4384 34.2926 19.6262 32.0021 17.8881 29.6314C16.7495 28.0795 15.7694 26.4305 15.1166 24.5692C13.904 21.1108 14.5578 18.0546 16.8475 15.3653C17.0495 15.1167 17.296 14.915 17.5719 14.7723C17.8479 14.6296 18.1477 14.549 18.4532 14.5352C19.058 14.5081 19.6659 14.5149 20.2706 14.5499C20.7919 14.5804 21.0474 15.0084 21.2351 15.4636C21.5677 16.2678 21.8743 17.0832 22.1891 17.8953C22.6125 18.9841 23.0233 20.0774 23.4602 21.1605C23.6499 21.6326 23.6541 22.0855 23.3841 22.4967C22.8836 23.259 22.3706 24.0146 21.8284 24.742C21.257 25.51 21.2247 25.7111 21.6855 26.5389C23.8022 30.3418 26.7196 33.1383 30.5358 34.8076C31.3356 35.1566 31.6244 35.1013 32.1655 34.392C32.7911 33.5675 33.4167 32.7385 34.0298 31.897C34.4751 31.2837 34.7149 31.1584 35.4145 31.434C36.1142 31.7095 36.7836 32.0597 37.4655 32.3793C38.5342 32.8808 39.6061 33.3744 40.6665 33.8928C41.4193 34.2598 41.4892 34.4575 41.4798 35.326C41.4391 39.1662 38.6812 40.8603 36.0652 41.3584C35.7086 41.4262 35.3353 41.4137 34.9766 41.4386L34.9651 41.4815Z" fill="white"/>
</svg>
